<svg xmlns="http://www.w3.org/2000/svg" width="1200" height="630" viewBox="0 0 1200 630" role="img" aria-label="説明文はデメリットが要る">
  <rect width="1200" height="630" fill="#FBF1F3"/>
  <rect x="40" y="40" width="1120" height="550" rx="18" fill="#FFFFFF"/>
  <rect x="40" y="40" width="10" height="550" rx="5" fill="#A4243B"/>
  <clipPath id="card"><rect x="40" y="40" width="1120" height="550" rx="18"/></clipPath>
  <g clip-path="url(#card)" opacity="0.055">
    <g transform="translate(640 92) scale(6.6)">
      <path fill="#A4243B" d="M4 64 L9 54 L26 38 L44 21 L45 9 L51 0 L59 15 L62 13 L72 1 L79 19 L85 34 L88 60 L84 96 L48 96 L40 86 L26 78 L12 70 Z"/>
      <circle cx="34" cy="44" r="3.8" fill="#FFFFFF"/>
    </g>
  </g>
  <circle cx="1012" cy="196" r="96" fill="#FBF1F3"/>
  <g transform="translate(956 140) scale(1.12)"><g fill="none" stroke="#A4243B" stroke-width="7" stroke-linecap="round" stroke-linejoin="round"><path d="M10 16h16l12 50h48"/><path d="M30 30h62l-8 28H38"/><circle cx="44" cy="84" r="8"/><circle cx="80" cy="84" r="8"/></g></g>
  <g font-family="'Hiragino Sans','Yu Gothic UI','Noto Sans JP','Meiryo',sans-serif">
    <rect x="104" y="108" width="218" height="52" rx="26" fill="#FBF1F3"/>
    <text x="213" y="144" font-size="28" font-weight="700" fill="#A4243B" text-anchor="middle">販路・集客</text>
    <text x="104" y="280" font-size="86" font-weight="700" fill="#1F2328">説明文はデメリットが</text>
    <text x="104" y="400" font-size="86" font-weight="700" fill="#1F2328">要る</text>
    <text x="104" y="534" font-size="28" font-weight="700" fill="#1F2328" letter-spacing="3">あかいうま</text>
    <text x="283" y="534" font-size="23" fill="#656C76">物販の売上アップと業務効率化</text>
  </g>
  <rect x="104" y="474" width="64" height="4" fill="#A4243B"/>
</svg>
